# xmcd
#
# Track frame offsets: 
#        182
#        13202
#        26175
#        38970
#        52370
#        66165
#        79152
#        90640
#        104270
#        117125
#        130355
#        143087
#        156825
#        169840
#        182450
#        194292
#        207852
#        219055
#        232545
#        246035
#        259220
#        271972
#
# Disc length: 3801 seconds
#
# Revision: 5
# Processed by: cddbd v1.5.2PL0 Copyright (c) Steve Scherf et al.
# Submitted via: ExactAudioCopyFreeDBPlugin 1.0
#
DISCID=340ed716
DTITLE=Big Bill Broonzy - I Feel So Good: The Essential Recordings of 
DTITLE=Big Bill Broonzy
DYEAR=1994
DGENRE=Blues
TTITLE0=How You Want It Done?
TTITLE1=Bull Cow Blues
TTITLE2=Long Tall Mama
TTITLE3=C And A Blues
TTITLE4=Big Bill Blues These Blues Keep Doggin' Me)
TTITLE5=You Know I Got A Reason
TTITLE6=Baby I Done Got Wise
TTITLE7=You Better Cut That Out
TTITLE8=Just A Dream No. 2
TTITLE9=Lonesome Road Blues
TTITLE10=Rockin' Chair Blues
TTITLE11=Key To The Highway
TTITLE12=When I Been Drinking
TTITLE13=I Feel So Good
TTITLE14=Too Many Drivers
TTITLE15=Looking Up At Down
TTITLE16=All By Myself
TTITLE17=Wee Wee Hours Blues
TTITLE18=Tell Me Baby
TTITLE19=New Shake 'Em On Down 
TTITLE20=Nigh Time Is The Right Time
TTITLE21=I'm Gonna Move To The Outskirts Of Town
EXTD=YEAR: 2004 Sanctuary Records\nKings Of The Blues Series
EXTT0=
EXTT1=
EXTT2=
EXTT3=
EXTT4=
EXTT5=
EXTT6=
EXTT7=
EXTT8=
EXTT9=
EXTT10=
EXTT11=
EXTT12=
EXTT13=
EXTT14=
EXTT15=
EXTT16=
EXTT17=
EXTT18=
EXTT19=
EXTT20=
EXTT21=
PLAYORDER=
